<svg xmlns="http://www.w3.org/2000/svg" xmlns:xlink="http://www.w3.org/1999/xlink" width="281.24" height="231.88" viewBox="0 0 281.24 231.88"><defs><style>.cls-1{fill:url(#linear-gradient);}.cls-2{fill:url(#linear-gradient-2);}.cls-3{fill:url(#linear-gradient-3);}.cls-4{fill:url(#linear-gradient-4);}.cls-5{fill:url(#linear-gradient-5);}.cls-6{fill:url(#linear-gradient-6);}.cls-7{fill:url(#linear-gradient-7);}</style><linearGradient id="linear-gradient" x1="-393.94" y1="-786.47" x2="-143.69" y2="-786.47" gradientTransform="matrix(-0.81, 0.1, -0.38, -0.66, -339.14, -378.69)" gradientUnits="userSpaceOnUse"><stop offset="0" stop-color="#6dc8e8"/><stop offset="1" stop-color="#037bba"/></linearGradient><linearGradient id="linear-gradient-2" x1="-351.36" y1="-781.07" x2="-158.98" y2="-781.07" xlink:href="#linear-gradient"/><linearGradient id="linear-gradient-3" x1="631.39" y1="-1435.1" x2="820.82" y2="-1435.1" gradientTransform="matrix(0.2, -0.8, -0.63, -0.44, -921.71, 124.88)" xlink:href="#linear-gradient"/><linearGradient id="linear-gradient-4" x1="781.09" y1="-1662.23" x2="781.09" y2="-1662.23" gradientTransform="matrix(0.2, -0.8, -0.63, -0.44, -921.71, 124.88)" xlink:href="#linear-gradient"/><linearGradient id="linear-gradient-5" x1="681.6" y1="-1428.63" x2="817.21" y2="-1428.63" gradientTransform="matrix(0.2, -0.8, -0.63, -0.44, -921.71, 124.88)" xlink:href="#linear-gradient"/><linearGradient id="linear-gradient-6" x1="-314.49" y1="-775.39" x2="-173.77" y2="-775.39" xlink:href="#linear-gradient"/><linearGradient id="linear-gradient-7" x1="712.53" y1="-1421.67" x2="812.86" y2="-1421.67" gradientTransform="matrix(0.2, -0.8, -0.63, -0.44, -921.71, 124.88)" xlink:href="#linear-gradient"/></defs><title>Asset 1</title><g id="Layer_2" data-name="Layer 2"><g id="Layer_1-2" data-name="Layer 1"><path class="cls-1" d="M3,.14C97.73.5,172-4.29,215.61,21.32c86.53,50.85,35.82,134.76,65.63,210.56"/><path class="cls-2" d="M28.48,21.32c63.71,3.58,138.48,7,165.28,20C255,71,224.92,148.09,248.09,204"/><path class="cls-3" d="M3,.14C-2.86,76.55-1.16,147,17.14,179.18c41.7,73.49,167.73,24.83,264.1,52.7"/><path class="cls-4" d="M281.24,231.88"/><path class="cls-5" d="M28.48,21.32c.33,51.6-1,110.09,14.1,132.4C77.09,204.56,176.73,182.58,247.87,204"/><path class="cls-6" d="M53.6,42.67c47,2.62,100.71,4.49,120.45,14.09,45.16,22,22.88,77.75,39.92,119"/><path class="cls-7" d="M53.71,43c.29,38-.87,81.42,10.25,97.89C89.41,178.43,161.5,160,214,175.81"/></g></g></svg>